<svg xmlns="http://www.w3.org/2000/svg" viewBox="0 0 512 512" role="img" aria-labelledby="title desc">
  <title id="title">x360ce controller icon</title>
  <desc id="desc">Minimal dark game controller with colored face buttons</desc>
  <path fill="#2B2F38" d="M150 132c-52 0-92 33-111 86L9 330c-14 52 46 84 79 42l53-67h230l53 67c33 42 93 10 79-42l-30-112c-19-53-59-86-111-86H150z"/>
  <rect x="118" y="210" width="108" height="28" rx="14" fill="#F5F7FA"/>
  <rect x="158" y="170" width="28" height="108" rx="14" fill="#F5F7FA"/>
  <circle cx="355" cy="190" r="19" fill="#F4C542"/>
  <circle cx="398" cy="233" r="19" fill="#D9534F"/>
  <circle cx="355" cy="276" r="19" fill="#5CB85C"/>
  <circle cx="312" cy="233" r="19" fill="#4A90E2"/>
  <circle cx="217" cy="290" r="31" fill="#15181D"/>
  <circle cx="295" cy="290" r="31" fill="#15181D"/>
  <circle cx="256" cy="208" r="18" fill="#737B8C"/>
</svg>
